<?xml version="1.0" standalone="no"?>
<!DOCTYPE svg PUBLIC "-//W3C//DTD SVG 20010904//EN"
 "http://www.w3.org/TR/2001/REC-SVG-20010904/DTD/svg10.dtd">
<svg version="1.0" xmlns="http://www.w3.org/2000/svg"
 width="40.000000pt" height="42.000000pt" viewBox="0 0 40.000000 42.000000"
 preserveAspectRatio="xMidYMid meet">

<g transform="translate(0.000000,42.000000) scale(0.100000,-0.100000)"
fill="#000000" stroke="none">
<path d="M62 398 c-7 -7 -12 -18 -12 -25 0 -7 -4 -13 -10 -13 -5 0 -10 -4 -10
-10 0 -6 63 -10 170 -10 107 0 170 4 170 10 0 6 -57 10 -150 10 -82 0 -150 3
-150 8 1 27 22 32 150 35 l135 3 -140 2 c-99 1 -145 -2 -153 -10z"/>
<path d="M30 317 c0 -7 28 -41 63 -75 58 -58 66 -62 108 -62 42 0 49 4 107 63
34 34 62 68 62 75 0 9 -43 12 -170 12 -131 0 -170 -3 -170 -13z"/>
<path d="M30 209 l0 -85 48 -47 48 -47 76 0 76 0 46 54 46 54 0 78 0 78 -63
-62 c-58 -57 -66 -62 -107 -62 -41 0 -49 5 -107 62 l-63 62 0 -85z"/>
</g>
</svg>
